HIERARCHY
ROOT Pelvis
{
	OFFSET 0.000000 0.000000 0.000000
	CHANNELS 6 Xposition Yposition Zposition Xrotation Yrotation Zrotation
	JOINT LeftUpLeg_virtual
	{
		OFFSET 0.000000 0.000000 0.000000
		CHANNELS 3 Xrotation Yrotation Zrotation
		JOINT LeftUpLeg
		{
			OFFSET 18.735201 -5.666702 -4.541200
			CHANNELS 3 Xrotation Yrotation Zrotation
			JOINT LeftLeg
			{
				OFFSET -0.021200 -31.938179 0.493100
				CHANNELS 3 Xrotation Yrotation Zrotation
				JOINT LeftFoot
				{
					OFFSET 0.021200 -31.938179 -4.336299
					CHANNELS 3 Xrotation Yrotation Zrotation
					JOINT LeftToeBase
					{
						OFFSET 0.943001 -26.722000 15.023500
						CHANNELS 3 Xrotation Yrotation Zrotation
						End Site
						{
							OFFSET 0 0 0
						}
					}
				}
			}
		}
	}
	JOINT RightUpLeg_virtual
	{
		OFFSET 0.000000 0.000000 0.000000
		CHANNELS 3 Xrotation Yrotation Zrotation
		JOINT RightUpLeg
		{
			OFFSET -18.735201 -5.666702 -4.541200
			CHANNELS 3 Xrotation Yrotation Zrotation
			JOINT RightLeg
			{
				OFFSET 0.018946 -31.938133 0.493100
				CHANNELS 3 Xrotation Yrotation Zrotation
				JOINT RightFoot
				{
					OFFSET -0.018946 -31.938126 -4.336299
					CHANNELS 3 Xrotation Yrotation Zrotation
					JOINT RightToeBase
					{
						OFFSET -0.943001 -26.722004 15.023500
						CHANNELS 3 Xrotation Yrotation Zrotation
						End Site
						{
							OFFSET 0 0 0
						}
					}
				}
			}
		}
	}
	JOINT Hips_virtual
	{
		OFFSET 0.000000 0.000000 0.000000
		CHANNELS 3 Xrotation Yrotation Zrotation
		JOINT Hips
		{
			OFFSET -0.000000 -0.000000 -0.000000
			CHANNELS 3 Xrotation Yrotation Zrotation
			JOINT Spine
			{
				OFFSET 0.000000 10.199997 -0.299500
				CHANNELS 3 Xrotation Yrotation Zrotation
				JOINT Spine1
				{
					OFFSET 0.000000 11.900002 -1.516600
					CHANNELS 3 Xrotation Yrotation Zrotation
					JOINT Spine2
					{
						OFFSET 0.000000 13.600006 -2.842500
						CHANNELS 3 Xrotation Yrotation Zrotation
						JOINT Neck_virtual
						{
							OFFSET 0.000000 0.000000 0.000000
							CHANNELS 3 Xrotation Yrotation Zrotation
							JOINT Neck
							{
								OFFSET 0.000000 9.624100 -2.890100
								CHANNELS 3 Xrotation Yrotation Zrotation
								JOINT Head
								{
									OFFSET 0.000000 14.068802 -1.351900
									CHANNELS 3 Xrotation Yrotation Zrotation
									End Site
									{
										OFFSET 0 0 0
									}
								}
							}
						}
						JOINT LeftShoulder_virtual
						{
							OFFSET 0.000000 0.000000 0.000000
							CHANNELS 3 Xrotation Yrotation Zrotation
							JOINT LeftShoulder
							{
								OFFSET 15.263000 10.923401 -0.547700
								CHANNELS 3 Xrotation Yrotation Zrotation
								JOINT LeftArm
								{
									OFFSET 25.438599 -2.830597 -13.032500
									CHANNELS 3 Xrotation Yrotation Zrotation
									JOINT LeftForeArm
									{
										OFFSET 29.960503 0.000000 0.000000
										CHANNELS 3 Xrotation Yrotation Zrotation
										JOINT LeftHand
										{
											OFFSET 27.849251 0.000000 0.000000
											CHANNELS 3 Xrotation Yrotation Zrotation
											End Site
											{
												OFFSET 0 0 0
											}
										}
									}
								}
							}
						}
						JOINT RightShoulder_virtual
						{
							OFFSET 0.000000 0.000000 0.000000
							CHANNELS 3 Xrotation Yrotation Zrotation
							JOINT RightShoulder
							{
								OFFSET -15.263000 10.923401 -0.547700
								CHANNELS 3 Xrotation Yrotation Zrotation
								JOINT RightArm
								{
									OFFSET -25.438599 -2.830597 -13.032500
									CHANNELS 3 Xrotation Yrotation Zrotation
									JOINT RightForeArm
									{
										OFFSET -29.960503 0.000000 0.000000
										CHANNELS 3 Xrotation Yrotation Zrotation
										JOINT RightHand
										{
											OFFSET -27.849251 0.000000 0.000000
											CHANNELS 3 Xrotation Yrotation Zrotation
											End Site
											{
												OFFSET 0 0 0
											}
										}
									}
								}
							}
						}
					}
				}
			}
		}
	}
}
MOTION
Frames: 6
Frame Time: 0.03333333
-8.135656 87.785553 86.889450 0.000000 0.000000 0.000000 23.816019 10.961155 -7.543719 -39.337348 -5.070034 -6.334207 38.390233 -0.430346 -4.196848 -20.844397 3.980119 11.751158 0.000000 0.000000 0.000000 23.691792 12.154403 -8.310248 -64.136050 -0.870699 -16.815313 58.538116 -7.346873 2.265472 15.946125 -3.581179 9.687838 0.000000 0.000000 0.000000 22.830136 11.499955 -7.476659 0.617135 1.342905 -1.384427 10.333889 1.293390 -0.734927 -0.855051 2.298244 -0.140740 0.000000 0.000000 0.000000 -0.085237 2.530778 -0.620713 -4.132413 0.153197 0.069377 0.000000 0.000000 0.000000 -0.074160 2.536314 -0.868153 1.209534 -2.144129 -19.199699 10.997801 -6.809305 -50.791035 2.090701 -60.929980 1.815928 0.000000 0.000000 0.000000 -0.460568 2.754485 -0.794177 0.692141 5.309538 18.118590 15.024589 -9.287092 47.117954 1.219678 66.101854 -1.023291 0.000000 0.000000 0.000000 
-7.799085 87.632896 92.631821 0.000000 0.000000 0.000000 24.411641 12.107035 -8.161267 -33.459690 -8.447635 -5.666739 35.121355 -0.612377 -3.841693 -20.357589 2.452261 9.325153 0.000000 0.000000 0.000000 24.006826 12.979579 -8.834321 -66.682693 0.976709 -16.853594 53.870976 -7.361562 2.201059 15.538457 -3.324665 10.443907 0.000000 0.000000 0.000000 23.288773 12.934723 -8.044126 0.109957 1.685130 -1.613372 10.207427 0.708118 -0.353662 -0.870286 2.262162 -0.163184 0.000000 0.000000 0.000000 -0.025579 2.528688 -0.666167 -4.072810 0.170453 0.024896 0.000000 0.000000 0.000000 0.106391 2.523993 -0.860101 1.190069 -1.790073 -19.059638 11.019020 -8.371654 -50.468787 1.805063 -60.298515 1.583325 0.000000 0.000000 0.000000 -0.369045 2.752987 -0.859331 0.719783 5.310391 17.930302 15.751140 -10.436944 47.160701 1.103125 67.232824 -0.655256 0.000000 0.000000 0.000000 
-7.479348 86.758392 98.152451 0.000000 0.000000 0.000000 24.418445 13.121807 -8.244951 -28.045771 -10.594793 -5.135571 33.093848 -0.340085 -3.585582 -22.622056 0.928087 7.476625 0.000000 0.000000 0.000000 23.811918 14.075234 -8.853081 -68.802360 2.304119 -17.114523 48.467453 -6.838983 2.502711 14.460110 -2.306470 12.122111 0.000000 0.000000 0.000000 23.270157 14.456958 -8.144639 -0.337664 1.561349 -1.465985 10.273447 0.090158 -0.499117 -0.847206 2.308071 -0.280508 0.000000 0.000000 0.000000 0.042195 2.584495 -0.782399 -4.079133 0.178134 -0.008197 0.000000 0.000000 0.000000 0.315384 2.576013 -0.904186 1.193660 -1.485595 -18.858391 11.161427 -9.333511 -50.060605 1.694552 -60.237009 1.392946 0.000000 0.000000 0.000000 -0.181256 2.839990 -0.929840 0.782650 5.078971 17.452233 16.633737 -11.190149 47.525979 1.044258 68.623047 -0.377529 0.000000 0.000000 0.000000 
-7.382793 85.516846 103.533493 0.000000 0.000000 0.000000 24.029188 14.416617 -8.111083 -22.713799 -11.828046 -4.739299 31.836605 0.360407 -3.310552 -27.907149 -0.381563 6.130699 0.000000 0.000000 0.000000 23.057638 15.336312 -8.557671 -70.501404 3.220034 -16.976092 43.488054 -6.256753 2.885822 10.553219 -1.776349 13.081186 0.000000 0.000000 0.000000 22.806821 16.127630 -8.133651 -0.406267 1.315233 -1.008622 10.501939 -0.561231 -0.922250 -0.778255 2.370661 -0.437988 0.000000 0.000000 0.000000 0.099946 2.636404 -0.917161 -4.132171 0.191980 -0.032712 0.000000 0.000000 0.000000 0.507155 2.639223 -0.984124 1.219163 -1.231346 -18.559291 11.362371 -9.480627 -49.741020 1.734548 -60.474748 1.274659 0.000000 0.000000 0.000000 0.052668 2.935003 -0.969831 0.858629 4.530719 16.747737 17.406150 -11.379584 48.237921 1.121028 69.795149 -0.302570 0.000000 0.000000 0.000000 
-7.361776 84.326523 108.569145 0.000000 0.000000 0.000000 23.584426 15.921509 -8.085417 -17.488592 -11.994523 -4.007424 30.750635 1.562837 -3.268308 -34.238598 -1.384321 4.532480 0.000000 0.000000 0.000000 22.096531 17.013836 -8.393485 -71.666149 3.744854 -16.307130 39.709012 -6.074396 2.990387 4.158708 -2.417565 12.190558 0.000000 0.000000 0.000000 22.197201 17.915972 -8.376418 -0.229957 1.009685 -0.537406 10.769440 -1.256370 -1.258358 -0.660439 2.359171 -0.561819 0.000000 0.000000 0.000000 0.113874 2.605983 -1.005061 -4.210662 0.216983 -0.055510 0.000000 0.000000 0.000000 0.634217 2.631624 -1.045872 1.288691 -1.036385 -18.223008 11.436270 -8.876288 -49.663060 1.845301 -60.694195 1.191699 0.000000 0.000000 0.000000 0.256845 2.945557 -0.934839 0.924451 3.679045 15.967254 18.049994 -11.132106 49.070702 1.390687 70.677712 -0.492300 0.000000 0.000000 0.000000 
-7.114906 83.296539 113.411201 0.000000 0.000000 0.000000 23.307667 17.433843 -8.417053 -13.734668 -11.026225 -2.691818 30.545320 3.356074 -3.698077 -37.802963 -1.664734 3.157737 0.000000 0.000000 0.000000 21.436889 18.663313 -8.662183 -72.481954 3.409289 -15.525478 37.875305 -6.356036 2.969975 -3.630040 -3.810619 9.285461 0.000000 0.000000 0.000000 21.719399 19.508236 -8.944482 0.043051 0.354838 -0.179348 10.986596 -1.979376 -1.155052 -0.530327 2.221010 -0.575833 0.000000 0.000000 0.000000 0.080426 2.443438 -0.974641 -4.282775 0.265511 -0.071786 0.000000 0.000000 0.000000 0.662630 2.485252 -1.045569 1.392118 -0.891534 -17.841965 11.342243 -7.701581 -50.005031 1.949645 -60.710970 1.125850 0.000000 0.000000 0.000000 0.387458 2.811760 -0.806239 0.944848 2.608586 15.251720 18.720836 -10.743925 49.765725 1.860840 71.399792 -0.881812 0.000000 0.000000 0.000000 
